HIERARCHY
ROOT Hips
{
  OFFSET 0 0 0
  CHANNELS 6 Xposition Yposition Zposition Zrotation Xrotation Yrotation
  JOINT LeftUpLeg
  {
    OFFSET 4.06525 -3.90732 0.41711
    CHANNELS 3 Zrotation Xrotation Yrotation
    JOINT LeftLeg
    {
      OFFSET 0.00023 -18.4821 0.00367
      CHANNELS 3 Zrotation Xrotation Yrotation
      JOINT LeftFoot
      {
        OFFSET -0.00172 -15.2898 -0.02629
        CHANNELS 3 Zrotation Xrotation Yrotation
        JOINT LeftToeBase
        {
          OFFSET 0.36743 -3.19131 5.54287
          CHANNELS 3 Zrotation Xrotation Yrotation
          JOINT LeftToeBase2
          {
            OFFSET 0.08751 0.04849 1.36758
            CHANNELS 3 Zrotation Xrotation Yrotation
            JOINT LeftToeBase3
            {
              OFFSET 0.07484 0.06785 1.16707
            }
          }
        }
      }
    }
  }
  JOINT RightUpLeg
  {
    OFFSET -4.06526 -3.90731 0.41712
    CHANNELS 3 Zrotation Xrotation Yrotation
    JOINT RightLeg
    {
      OFFSET -0.00029 -18.4821 0.0044
      CHANNELS 3 Zrotation Xrotation Yrotation
      JOINT RightFoot
      {
        OFFSET 0.0016 -15.2898 -0.02569
        CHANNELS 3 Zrotation Xrotation Yrotation
        JOINT RightToeBase
        {
          OFFSET -0.3542 -3.19109 5.54386
          CHANNELS 3 Zrotation Xrotation Yrotation
          JOINT RightToeBase2
          {
            OFFSET -0.08424 0.04854 1.36778
            CHANNELS 3 Zrotation Xrotation Yrotation
            JOINT RightToeBase3
            {
              OFFSET -0.07205 0.0679 1.16725
            }
          }
        }
      }
    }
  }
  JOINT Spine
  {
    OFFSET 1e-005 4.46517 -0.10224
    CHANNELS 3 Zrotation Xrotation Yrotation
    JOINT Spine1
    {
      OFFSET 1e-005 4.46212 -0.1824
      CHANNELS 3 Zrotation Xrotation Yrotation
      JOINT Spine2
      {
        OFFSET 0 4.37937 -0.881
        CHANNELS 3 Zrotation Xrotation Yrotation
        JOINT Spine3
        {
          OFFSET 1e-005 4.68286 0.21414
          CHANNELS 3 Zrotation Xrotation Yrotation
          JOINT Neck
          {
            OFFSET 0 1.76964 0.82454
            CHANNELS 3 Zrotation Xrotation Yrotation
            JOINT Head
            {
              OFFSET 0 1.6961 0.93145
              CHANNELS 3 Zrotation Xrotation Yrotation
              JOINT Head_End
              {
                OFFSET 1e-005 7.8375 1.52603
              }
            }
          }
          JOINT LeftShoulder
          {
            OFFSET 1.19381 -0.75881 -0.02768
            CHANNELS 3 Zrotation Xrotation Yrotation
            JOINT LeftArm
            {
              OFFSET 5.18779 -2e-005 1e-005
              CHANNELS 3 Zrotation Xrotation Yrotation
              JOINT LeftForeArm
              {
                OFFSET 12.7364 -4e-005 2e-005
                CHANNELS 3 Zrotation Xrotation Yrotation
                JOINT LeftHand
                {
                  OFFSET 9.21452 -2e-005 1e-005
                  CHANNELS 3 Zrotation Xrotation Yrotation
                }
              }
            }
          }
          JOINT RightShoulder
          {
            OFFSET -1.19381 -0.75881 -0.02767
            CHANNELS 3 Zrotation Xrotation Yrotation
            JOINT RightArm
            {
              OFFSET -5.18779 1e-005 -1e-005
              CHANNELS 3 Zrotation Xrotation Yrotation
              JOINT RightForeArm
              {
                OFFSET -12.7364 3e-005 -2e-005
                CHANNELS 3 Zrotation Xrotation Yrotation
                JOINT RightHand
                {
                  OFFSET -9.21452 2e-005 -1e-005
                  CHANNELS 3 Zrotation Xrotation Yrotation
                }
              }
            }
          }
        }
      }
    }
  }
}
MOTION
Frames: 12
Frame Time: 	0.0166667
6.91687e-009 41.4375 -3.06129e-008 0.187785 -0.046242 0.000154323 10.3636 1.37374 -5.27493  0.0651316 4.95416 -0.109819  -8.77273 -4.61224 3.37276  1.63753e-011 -1.41002e-011 2.03906e-011  -0 0 -0   -1.87942 -1.873 -6.80437  0.632745 15.8994 -0.712173  -1.10108 -12.7423 11.1046  -1.23676e-012 -8.63143e-012 1.64896e-011  -0 0 -0   2.15812 0.0704961 -0.947044  1.14491 2.48376 -0.423971  1.1938 3.2285 -0.230384  2.04576 6.08633 -0.578359  -5.60226 -17.5039 -6.95454  4.09974 -11.9134 -7.76843   -5.84151 3.05176 -15.4788  -70.7764 13.2192 -6.27203  -0.0677379 -0.210836 -12.5845  0.807273 -1.63955 -7.52614  4.14591 2.08033 15.7906  66.8035 -2.92753 4.08162  0.0888911 0.0206341 17.893  8.88347 23.1138 2.26175 
0.0422009 41.4441 0.012809 0.187741 -0.0332317 -0.0777715 10.291 1.39652 -5.10017  0.0651601 4.96895 -0.109822  -8.70111 -4.61604 3.28352  1.63753e-011 -1.41002e-011 2.03906e-011  -0 0 -0   -1.94206 -1.79494 -6.76851  0.627188 15.7165 -0.699734  -1.02349 -12.6443 11.1504  -1.23676e-012 -8.63143e-012 1.64896e-011  -0 0 -0   2.15679 -0.0100205 -0.916405  1.14392 2.44649 -0.407426  1.18341 3.1964 -0.215266  2.02833 6.03903 -0.54931  -5.65251 -17.4723 -6.9412  4.22236 -11.9802 -7.78533   -5.82887 3.04559 -15.5042  -70.7324 13.0162 -6.23652  -0.0712358 -0.218206 -13.047  1.12174 -1.50747 -7.54363  4.15494 2.08923 15.7627  67.011 -2.94802 4.09216  0.0888446 0.0206191 18.0223  8.99025 23.1184 2.29816 
0.0839529 41.4501 0.0217471 0.180905 -0.0114609 -0.140317 10.2335 1.4003 -4.93898  0.0651607 4.9842 -0.109494  -8.66123 -4.62911 3.18936  1.63753e-011 -1.41002e-011 2.03906e-011  -0 0 -0   -1.99662 -1.73586 -6.73541  0.621849 15.5417 -0.687482  -0.943645 -12.5454 11.1875  -1.23676e-012 -8.63143e-012 1.64896e-011  -0 0 -0   2.15562 -0.0859117 -0.888701  1.14305 2.41349 -0.392211  1.17347 3.17147 -0.201424  2.00845 6.00789 -0.522858  -5.69371 -17.4895 -6.92838  4.34678 -12.0631 -7.79618   -5.8012 3.03146 -15.5522  -70.6694 12.8223 -6.2294  -0.0746064 -0.225042 -13.4779  1.37434 -1.40396 -7.58687  4.15645 2.09835 15.7445  67.1944 -2.87877 4.1197  0.0887887 0.0206008 18.1775  9.0459 23.0544 2.30857 
0.125101 41.4555 0.0270435 0.165437 0.015286 -0.187638 10.1894 1.38317 -4.80115  0.0651239 5.01234 -0.108459  -8.64176 -4.65149 3.10071  1.63753e-011 -1.41002e-011 2.03906e-011  -0 0 -0   -2.04065 -1.68812 -6.70912  0.614008 15.37 -0.675479  -0.866316 -12.4434 11.2173  -1.23676e-012 -8.63143e-012 1.64896e-011  -0 0 -0   2.15468 -0.150557 -0.863664  1.14228 2.38576 -0.378197  1.16336 3.15113 -0.188743  1.98414 5.98374 -0.498783  -5.72101 -17.5489 -6.91764  4.46292 -12.1458 -7.80069   -5.76025 3.01349 -15.6128  -70.5908 12.6383 -6.24493  -0.0778925 -0.231481 -13.8852  1.59019 -1.30525 -7.63942  4.15669 2.10975 15.7235  67.3496 -2.73182 4.16979  0.0887308 0.0205817 18.3387  9.07399 22.9422 2.31041 
0.165442 41.4604 0.028488 0.13977 0.042947 -0.218314 10.1588 1.34449 -4.70892  0.0651171 5.06243 -0.107312  -8.63983 -4.68377 3.03734  1.63753e-011 -1.41002e-011 2.03906e-011  -0 0 -0   -2.071 -1.64462 -6.69546  0.606196 15.1975 -0.663872  -0.796287 -12.3371 11.2415  -1.23676e-012 -8.63143e-012 1.64896e-011  -0 0 -0   2.16128 -0.198109 -0.841633  1.14162 2.36449 -0.36557  1.15231 3.13386 -0.177444  1.9524 5.96034 -0.477498  -5.72605 -17.6476 -6.90993  4.56188 -12.2115 -7.79723   -5.70549 2.99432 -15.677  -70.4989 12.4675 -6.28112  -0.081093 -0.237558 -14.2705  1.78014 -1.19297 -7.68718  4.16336 2.12473 15.6856  67.4703 -2.50264 4.25213  0.0886768 0.0205637 18.4891  9.09095 22.7761 2.31696 
0.20507 41.4646 0.0274504 0.103617 0.0666151 -0.234599 10.1422 1.29794 -4.64892  0.0651068 5.11994 -0.105994  -8.64971 -4.72248 2.98899  1.63753e-011 -1.41002e-011 2.03906e-011  -0 0 -0   -2.08784 -1.60005 -6.69111  0.598463 15.0251 -0.65254  -0.730624 -12.2278 11.2598  -1.23676e-012 -8.63143e-012 1.64896e-011  -0 0 -0   2.17447 -0.224297 -0.821947  1.14105 2.35001 -0.353966  1.14134 3.11745 -0.167078  1.91669 5.93036 -0.458178  -5.71601 -17.7713 -6.90549  4.63758 -12.2555 -7.7876   -5.64388 2.97764 -15.7407  -70.3961 12.309 -6.3296  -0.0842345 -0.243349 -14.6389  1.9501 -1.07034 -7.73724  4.17269 2.14229 15.6311  67.5594 -2.21688 4.35698  0.089112 0.019119 18.6179  9.10863 22.6167 2.34126 
0.244005 41.4679 0.0228112 0.0543158 0.0786262 -0.236835 10.1426 1.25835 -4.62013  0.0650632 5.17205 -0.104446  -8.66943 -4.76396 2.95492  1.63753e-011 -1.41002e-011 2.03906e-011  -0 0 -0   -2.08829 -1.54471 -6.69567  0.590793 14.8512 -0.641331  -0.667877 -12.1157 11.2727  -1.23676e-012 -8.63143e-012 1.64896e-011  -0 0 -0   2.19626 -0.220151 -0.80442  1.14057 2.34393 -0.343198  1.13082 3.09924 -0.157432  1.87702 5.88341 -0.440458  -5.69004 -17.9107 -6.90477  4.67762 -12.2639 -7.77113   -5.57872 2.96783 -15.7958  -70.2863 12.1626 -6.38126  -0.0873984 -0.249019 -15.0008  2.11429 -0.926588 -7.78568  4.18684 2.16373 15.5504  67.6155 -1.8872 4.48578  0.08933 0.0183811 18.7037  9.14044 22.5176 2.40797 
0.282233 41.4705 0.0156002 -0.00287323 0.0808379 -0.229122 10.1522 1.22058 -4.60772  0.0649926 5.22512 -0.102613  -8.68479 -4.81067 2.92617  1.63753e-011 -1.41002e-011 2.03906e-011  -0 0 -0   -2.07827 -1.48501 -6.70616  0.583298 14.6805 -0.630486  -0.608367 -12.0035 11.2803  -1.23676e-012 -8.63143e-012 1.64896e-011  -0 0 -0   2.22142 -0.193831 -0.787968  1.14323 2.34367 -0.332934  1.12215 3.07909 -0.148012  1.84084 5.82237 -0.423374  -5.66518 -18.0474 -6.91208  4.69209 -12.2467 -7.7536   -5.52034 2.96547 -15.845  -70.1671 12.0285 -6.43641  -0.0904477 -0.25434 -15.3415  2.25859 -0.785425 -7.85144  4.19582 2.1834 15.46  67.6459 -1.54794 4.61474  0.089554 0.0176613 18.7607  9.19793 22.4942 2.49561 
0.319723 41.4725 0.00631706 -0.064863 0.0786381 -0.21478 10.1659 1.18744 -4.5977  0.0665447 5.27977 -0.100438  -8.67917 -4.86466 2.89365  1.63753e-011 -1.41002e-011 2.03906e-011  -0 0 -0   -2.06061 -1.42143 -6.71806  0.576177 14.5172 -0.620207  -0.552364 -11.8939 11.2806  -1.23676e-012 -8.63143e-012 1.64896e-011  -0 0 -0   2.24624 -0.14591 -0.771331  1.14872 2.34825 -0.322701  1.11757 3.05492 -0.138073  1.81745 5.74227 -0.405569  -5.6585 -18.162 -6.92181  4.6835 -12.2033 -7.74123   -5.48325 2.97419 -15.8872  -70.0363 11.9104 -6.48972  -0.0933318 -0.259251 -15.6568  2.37427 -0.672325 -7.95121  4.18723 2.19601 15.3701  67.6571 -1.23339 4.72096  0.0897823 0.0169589 18.7921  9.31172 22.6037 2.59961 
0.356383 41.4742 -0.00451792 -0.126772 0.0757327 -0.196287 10.1786 1.15109 -4.58643  0.0683605 5.338 -0.097867  -8.65781 -4.92224 2.85713  1.63753e-011 -1.41002e-011 2.03906e-011  -0 0 -0   -2.04195 -1.36181 -6.73548  0.569384 14.3618 -0.610418  -0.498629 -11.7869 11.2813  -1.23676e-012 -8.63143e-012 1.64896e-011  -0 0 -0   2.26782 -0.0901986 -0.75484  1.15328 2.35475 -0.312729  1.11494 3.02969 -0.128175  1.80128 5.65619 -0.387868  -5.65896 -18.2498 -6.93138  4.66228 -12.1506 -7.7321   -5.45819 2.98923 -15.9248  -69.8978 11.797 -6.54913  -0.0958367 -0.263427 -15.9256  2.45953 -0.571361 -8.08799  4.17031 2.20183 15.2911  67.6502 -0.956308 4.80319  0.0900105 0.0162724 18.8092  9.43789 22.7752 2.69462 
0.39209 41.4759 -0.0164156 -0.183126 0.0758252 -0.178153 10.1836 1.10317 -4.56294  0.0702042 5.405 -0.0939497  -8.619 -4.98099 2.81179  1.63753e-011 -1.41002e-011 2.03906e-011  -0 0 -0   -2.02996 -1.31448 -6.76663  0.563076 14.2165 -0.601126  -0.446124 -11.683 11.2952  -1.23676e-012 -8.63143e-012 1.64896e-011  -0 0 -0   2.28163 -0.0399285 -0.737773  1.15397 2.3601 -0.302768  1.11299 3.00553 -0.118239  1.79164 5.57502 -0.369949  -5.66361 -18.2981 -6.9377  4.63941 -12.1053 -7.72788   -5.44239 3.00802 -15.9608  -69.7536 11.6793 -6.62263  -0.0977076 -0.266497 -16.1232  2.50639 -0.486412 -8.27925  4.14855 2.19767 15.2379  67.6278 -0.742769 4.84861  0.0902346 0.0156001 18.8252  9.54278 22.9759 2.75131 
0.426943 41.478 -0.0289855 -0.232787 0.0821924 -0.157757 10.1808 1.04775 -4.53535  0.0718275 5.47242 -0.0883219  -8.56714 -5.03952 2.76244  1.63753e-011 -1.41002e-011 2.03906e-011  -0 0 -0   -2.02444 -1.27857 -6.79473  0.557183 14.0809 -0.592302  -0.394722 -11.5828 11.3045  -1.23676e-012 -8.63143e-012 1.64896e-011  -0 0 -0   2.28912 0.00257341 -0.72204  1.15282 2.36197 -0.293811  1.11011 2.98275 -0.109446  1.78317 5.50044 -0.353888  -5.66233 -18.3112 -6.93873  4.6159 -12.0662 -7.72394   -5.43082 3.02758 -15.9927  -69.6072 11.5544 -6.70475  -0.0987421 -0.267756 -16.2556  2.52454 -0.383738 -8.49843  4.12683 2.18867 15.2075  67.5911 -0.586959 4.86904  0.0904551 0.0149423 18.8381  9.62651 23.1479 2.77641 
